<?xml version="1.0" standalone"no"?>
<svg width="1000" height="1000" version="1.1" xmlns="http://www.w3.org/2000/svg">
<rect x="500" y="600" width = "700" height ="800" fill="blue" stroke = "yellow" stroke-Width="5"/><circle cx="4" cy="5" r ="6" fill="red" stroke = "green" stroke-Width="5"/><ellipse cx="100" cy="200" rx ="300" ry ="400" fill="pink" stroke = "black" stroke-Width="5"/><line x1="20" y1="30" x2 = "40" y2 ="50"  stroke = "orange" stroke-Width="5"/><polygon points="350,75  379,161 469,161 397,215 423,301 350,250 277,301 303,215 231,161 321,161" fill="red" stroke = "blue" stroke-Width="5"/><polyline points="50,375, 150,375 150,325 250,325 250,375,350,375 350,250 450,250 450,375 550,375 550,175 650,175" fill="purple" stroke = "brown" stroke-Width="2"/></svg>
